HIERARCHY
ROOT Hips
{
     OFFSET 1.88212 96.90440 -13.34250
     CHANNELS 6 Xposition Yposition Zposition Zrotation Xrotation Yrotation
     JOINT Spine
     {
          OFFSET 0.00000 11.89050 0.00000
          CHANNELS 3 Zrotation Xrotation Yrotation
          JOINT Spine1
          {
               OFFSET -0.00000 25.65740 0.12766
               CHANNELS 3 Zrotation Xrotation Yrotation
               JOINT HEad
               {
                    OFFSET 0.00000 8.73416 0.01134
                    CHANNELS 3 Zrotation Xrotation Yrotation
                    End Site
                    {
                         OFFSET -0.29000 12.77420 2.51395
                    }
               }
               JOINT LeftShoulder1
               {
                    OFFSET 8.99000 -0.36225 -0.22000
                    CHANNELS 3 Zrotation Xrotation Yrotation
                    JOINT LeftArm
                    {
                         OFFSET 10.28270 -0.00338 0.32212
                         CHANNELS 3 Zrotation Xrotation Yrotation
                         JOINT LeftForeArm
                         {
                              OFFSET 32.76690 0.09914 -1.42434
                              CHANNELS 3 Zrotation Xrotation Yrotation
                              JOINT LeftHand
                              {
                                   OFFSET 27.56430 0.08536 1.02216
                                   CHANNELS 3 Zrotation Xrotation Yrotation
                                   End Site
                                   {
                                        OFFSET 16.74430 -0.60000 1.50291
                                   }
                              }
                         }
                    }
               }
               JOINT RightShoulder
               {
                    OFFSET -8.99000 -0.36225 -0.22000
                    CHANNELS 3 Zrotation Xrotation Yrotation
                    JOINT RightArm
                    {
                         OFFSET -10.28270 -0.00338 0.32212
                         CHANNELS 3 Zrotation Xrotation Yrotation
                         JOINT RightForeArm
                         {
                              OFFSET -32.89710 0.09914 -1.42434
                              CHANNELS 3 Zrotation Xrotation Yrotation
                              JOINT RightHand
                              {
                                   OFFSET -27.49210 0.08536 1.02216
                                   CHANNELS 3 Zrotation Xrotation Yrotation
                                   End Site
                                   {
                                        OFFSET -16.63120 -0.60000 1.50291
                                   }
                              }
                         }
                    }
               }
          }
     }
     JOINT LeftUpLeg
     {
          OFFSET 8.94580 -8.66707 0.10165
          CHANNELS 3 Zrotation Xrotation Yrotation
          JOINT LeftLeg
          {
               OFFSET 0.00000 -44.42270 1.37270
               CHANNELS 3 Zrotation Xrotation Yrotation
               JOINT LeftFoot
               {
                    OFFSET -0.25355 -42.09240 -1.46059
                    CHANNELS 3 Zrotation Xrotation Yrotation
                    JOINT LeftToes
                    {
                         OFFSET -0.04000 -4.41509 8.49910
                         CHANNELS 3 Zrotation Xrotation Yrotation
                         End Site
                         {
                              OFFSET 0.08000 -0.04745 9.77979
                         }
                    }
               }
          }
     }
     JOINT RightUpLeg
     {
          OFFSET -8.94580 -8.66707 0.10165
          CHANNELS 3 Zrotation Xrotation Yrotation
          JOINT RightLeg
          {
               OFFSET 0.00000 -44.42270 1.37270
               CHANNELS 3 Zrotation Xrotation Yrotation
               JOINT RightFoot
               {
                    OFFSET 0.25355 -42.09240 -1.46059
                    CHANNELS 3 Zrotation Xrotation Yrotation
                    JOINT RightToes
                    {
                         OFFSET 0.04000 -4.41509 8.49910
                         CHANNELS 3 Zrotation Xrotation Yrotation
                         End Site
                         {
                              OFFSET -0.08000 -0.13745 9.77979
                         }
                    }
               }
          }
     }
}
MOTION
Frames: 20
Frame Time: 0.01667
92.20177 76.07218 -105.94003 -12.44503 -1.26183 -33.68557 10.75379 15.64527 -1.88316 -0.02082 0.03048 0.04278 -2.79774 9.11073 11.21452 -16.07568 12.60103 16.46453 -102.59496 -54.44274 -86.79350 -42.41729 56.48033 -102.13814 8.82665 10.23114 3.68869 3.69303 19.87570 22.27974 72.46796 -25.12084 76.22409 20.53244 45.71351 113.17245 -3.89834 2.43424 2.51089 10.34999 -36.13115 26.47249 368.14700 63.10588 -355.17590 20.04280 -0.79711 0.90798 -32.04018 -8.23384 -24.84439 -24.61488 -13.85483 -9.49450 -360.90018 52.90593 379.37515 33.40541 0.11044 0.11277 -2.47116 2.48945 -14.74365 
95.03451 80.01756 -104.48788 -12.70017 -0.86215 -36.33863 11.94316 14.91346 -2.20821 -0.01933 0.02785 0.03808 -5.54466 13.14751 11.73988 -17.75875 12.37079 18.32030 -100.98541 -54.90313 -84.82834 -41.42230 56.94360 -103.62911 7.61524 9.80180 1.84736 2.10601 20.33702 23.91296 71.44357 -25.69274 74.49633 21.67204 45.45390 113.38194 -3.42975 4.80373 2.43123 7.66398 -31.91724 23.89391 371.48566 55.35786 -362.42523 13.09640 -0.55306 0.23969 -25.63711 -15.56217 -12.82409 -20.05366 -11.89122 -13.04770 -363.15594 60.19286 383.87442 35.46651 0.07700 0.15793 2.65196 9.65328 -14.95871 
97.53212 83.66152 -103.35768 -12.57632 -0.64066 -38.66038 11.63435 15.30526 -1.47347 -0.08406 0.09586 0.07590 -6.86267 15.55227 11.43708 -17.90946 11.35246 18.67054 -99.63543 -55.26268 -83.07117 -40.31519 57.40144 -104.98092 8.71218 10.07766 3.02404 2.11456 19.59109 24.27364 70.36942 -26.18018 72.66775 22.74130 45.35092 113.81258 -3.83481 3.99515 1.92380 5.21722 -28.24317 20.62005 372.82016 47.71623 -367.77728 5.86862 -0.55603 0.27170 -11.51595 -2.28162 -18.40778 -14.99519 -9.34548 -16.01508 -363.73880 66.19439 385.58945 22.45195 -0.30450 -0.75872 19.53476 7.90073 -7.92781 
99.68481 86.88237 -102.66759 -10.19519 -1.01425 -41.16002 7.99811 15.62340 0.87413 -0.07888 0.08494 0.06943 -6.88278 16.80179 10.45878 -16.85820 9.84001 17.88274 -98.44839 -55.54444 -81.43452 -39.14606 57.85845 -106.23938 8.07896 9.77669 1.72164 3.47726 18.03527 23.65506 69.19521 -26.54620 70.68491 23.56493 45.45056 114.50906 -3.49668 5.64905 1.78612 1.38613 -26.06757 17.14709 373.48624 40.35309 -371.66702 -1.72499 -0.62163 0.24046 -10.05482 -4.11159 -6.14246 -11.50011 -7.02064 -17.91322 -364.58829 68.59977 385.56857 33.21394 0.06553 0.44430 -5.37432 0.52167 -8.03038 
101.64233 89.56739 -102.42250 -6.09224 -1.66450 -44.09153 2.78241 14.58881 3.92410 0.00272 0.00690 0.01442 -6.87252 17.83122 9.67238 -15.66637 8.60421 16.65506 -97.61393 -56.00406 -80.05113 -38.01447 58.18699 -107.21136 8.62829 9.81215 2.16779 4.96568 16.60322 22.71185 67.95361 -26.62370 68.68596 24.12765 45.66698 115.27559 -3.96899 5.74939 1.51331 -3.35655 -25.44670 13.45706 374.38892 33.44287 -374.11108 -9.91628 -0.66211 0.16564 12.21909 1.02598 -8.54863 -9.35959 -4.90054 -18.51203 -364.85870 67.35446 383.99850 17.30214 -0.28503 -0.37910 0.27513 -17.53592 2.62368 
103.28978 91.65332 -102.55658 -2.59927 -2.31717 -46.65147 -1.74962 13.39427 6.49393 0.00679 0.00016 0.00730 -6.65781 18.54487 9.01504 -14.18003 7.48899 15.15674 -97.02277 -56.51163 -78.89775 -37.09339 58.35421 -107.84754 8.20590 9.67082 1.14571 6.68437 15.17822 21.61818 66.75311 -26.47208 66.83218 24.36294 45.92598 116.03385 -3.87093 6.97699 1.61524 -7.39564 -24.98220 8.64170 375.67984 27.50422 -375.23828 -18.57626 -0.66555 0.05329 8.11529 2.17985 3.83110 -7.24304 -1.65925 -18.38518 -363.38379 61.25246 380.19507 15.49773 -0.13881 -0.01594 -5.59100 -29.45151 -0.39249 
104.69914 93.17687 -102.94632 0.28949 -2.88285 -48.90075 -5.59623 12.13253 8.63040 0.00638 -0.00128 0.00419 -6.34923 19.00347 8.55758 -12.47997 6.57737 13.64153 -96.74676 -56.98989 -78.12205 -36.57231 58.26447 -108.00997 8.39435 9.75860 1.26165 8.35448 13.85845 20.44176 65.87120 -26.06820 65.35303 24.37668 46.19806 116.68768 -4.39255 7.13322 1.68511 -10.52017 -24.56910 3.00762 377.19937 22.93989 -375.36615 -27.39256 -0.62543 -0.08011 24.60022 3.99982 -8.36051 -5.60230 2.39584 -17.53614 -362.13077 52.15469 376.07919 6.41166 -0.22378 0.19664 -5.98617 -39.20311 -3.79355 
106.17022 93.96476 -103.48526 2.58042 -3.30518 -50.97132 -8.75904 10.89691 10.44101 0.00368 0.00483 0.00267 -5.97954 19.20639 8.31613 -4.58538 6.28597 1.61950 -105.83080 -67.55254 -80.86040 -36.45984 58.23362 -108.41434 7.91911 9.42020 0.43288 14.31618 8.42857 8.10502 62.27398 -13.84246 64.59039 24.30950 46.32695 116.65940 -4.62415 8.24312 1.89164 -12.72679 -24.27831 -3.25033 378.60709 19.86307 -375.03732 -35.89135 -0.56788 -0.19841 23.06099 6.89194 2.85333 -4.55385 6.08042 -16.81314 -362.20602 42.01499 373.91769 1.61910 -0.18119 0.18726 11.09795 -32.55214 -12.13464 
107.56269 94.32688 -104.08023 4.58766 -3.68919 -53.01982 -11.63962 9.59571 12.13556 0.00067 0.00521 0.00130 -5.54490 19.37133 8.13362 1.13156 5.18335 -6.35150 -115.77779 -74.55737 -86.60513 -36.74308 58.15804 -108.90598 7.55237 9.14671 -0.03130 18.18405 3.97464 0.07811 59.92405 -5.60510 64.46864 24.33495 46.37606 116.31577 -4.93774 9.00189 2.10003 -14.55566 -24.09694 -9.62722 377.91180 17.32797 -373.86520 -30.44265 0.32451 0.07865 11.26571 4.89016 7.77315 -3.83039 9.63924 -16.14622 -362.59445 31.81697 372.26889 -2.22674 -0.10948 0.15521 16.11748 -30.15506 -20.13251 
108.95504 94.34694 -104.63045 6.32467 -4.04189 -55.05276 -14.18236 8.24187 13.57028 0.00126 0.00153 -0.00073 -5.17262 19.51987 8.16437 5.29048 4.12692 -11.25493 -123.22380 -77.84568 -91.87112 -36.41880 57.08950 -109.22346 7.21533 8.86880 -0.23182 20.70793 0.83944 -5.15910 58.50587 -0.26098 64.66885 24.48819 46.39892 115.87360 -5.31512 9.52934 2.22701 -16.09433 -23.97167 -15.81212 377.80280 15.02861 -372.99796 -24.96126 0.39447 0.02913 1.18690 0.77528 8.61611 -3.31986 13.15098 -15.49332 -363.05286 21.56155 370.81525 -5.11916 -0.09270 0.12287 14.39567 -29.13637 -24.74867 
110.40412 94.13426 -105.10648 7.82872 -4.37962 -57.07116 -16.39992 6.87174 14.74868 0.00056 -0.00063 -0.00249 -4.89106 19.64383 8.41042 8.38327 3.43392 -14.04832 -128.49327 -79.43768 -95.97396 -36.57768 55.94039 -109.16270 6.89909 8.52288 -0.25186 22.42718 -1.02412 -8.54767 58.48463 1.88604 64.74516 25.59156 47.57639 115.13568 -5.76091 9.90141 2.23128 -17.29835 -23.93632 -21.73048 378.23941 13.13095 -372.17883 -19.47903 0.37236 -0.01169 -6.72978 -5.94204 7.39799 -3.27332 16.43294 -14.65189 -363.33194 11.54408 369.36792 -7.16096 -0.07613 0.08893 9.43484 -28.80907 -25.76258 
111.73022 93.32897 -105.51331 8.52077 -4.90134 -59.30894 -18.32567 6.11836 15.68596 -0.00286 0.01269 -0.03363 -4.79326 19.95023 8.83123 10.49823 3.16437 -15.23750 -127.88616 -79.08801 -95.12136 -36.71029 55.01676 -106.92155 7.32841 9.10293 -0.78607 23.68938 -1.92343 -10.73639 59.06299 3.32344 64.98736 26.24881 47.63517 113.36740 -5.42101 12.18265 -2.49234 -17.49112 -23.46848 -27.05091 378.20306 11.44248 -370.25986 -13.52564 0.34526 -0.07460 -10.89066 -4.34155 10.10478 -3.59768 20.12489 -13.29535 -362.85565 1.47485 366.76547 -7.04876 -0.00466 -0.02241 0.01496 -28.24806 -27.31213 
112.98697 92.59046 -105.79930 8.43299 -5.54258 -61.67342 -19.94822 5.96680 16.35163 -0.00081 0.01393 -0.03415 -4.90779 20.46301 9.35484 11.77728 3.30574 -15.03823 -123.56202 -77.15430 -91.13200 -36.84604 54.39197 -102.87349 8.43078 10.44618 -2.38521 24.65509 -2.03334 -11.90258 60.04936 4.22257 65.23018 26.24534 46.73100 110.98141 -3.67393 15.56414 -9.05188 -16.72718 -22.50373 -31.76859 377.82751 9.90299 -367.39935 -7.22787 0.29161 -0.11908 -16.27996 -2.09318 13.67035 -4.32220 24.08191 -11.48115 -361.85086 -8.40285 363.24069 -5.97124 0.04431 -0.07534 -5.58642 -25.79318 -24.88550 
114.21186 91.81518 -106.00421 7.58885 -6.21675 -64.09162 -21.24862 6.42795 16.72620 0.00155 0.01487 -0.03206 -5.27706 21.14048 9.99007 12.33908 3.74563 -13.75871 -119.57642 -75.07101 -87.96487 -37.10654 53.70876 -99.15929 9.61017 11.72939 -3.81229 25.36947 -1.52957 -12.10194 61.33017 4.71056 65.40468 25.43940 44.98844 108.28056 -0.20044 19.79420 -15.96420 -15.15246 -20.99771 -35.92109 377.17343 8.44390 -363.76608 -0.61408 0.22830 -0.14627 -22.56270 0.38325 17.33060 -5.44054 28.16021 -9.23028 -360.44125 -17.77020 358.95428 -4.88791 0.06090 -0.07723 -8.49076 -22.49750 -19.86178 
115.41777 91.00259 -106.12646 4.42526 -6.71857 -66.43503 -21.39049 9.23960 16.00533 0.01111 0.05533 -0.09154 -6.50374 22.08266 10.92877 11.10851 4.42632 -10.02621 -116.74113 -73.19772 -86.77915 -37.01012 53.48040 -96.62401 10.82269 12.86938 -4.99532 25.12699 0.26566 -8.86751 63.41724 3.78193 65.48320 22.50804 40.46881 104.36252 3.07954 12.73098 -3.38874 -11.42337 -17.82295 -38.42226 375.00046 7.28915 -358.06927 6.89300 0.02755 -0.13001 -29.97352 2.67204 19.88400 -6.95970 32.51847 -5.91246 -357.02264 -24.41787 352.29236 -6.53648 -0.05748 0.00295 -4.81186 -17.12339 -10.61547 
116.59856 90.18265 -106.16953 1.45502 -7.05282 -68.37514 -21.34599 12.37922 13.62499 0.01617 0.06129 -0.07876 -8.58990 22.33718 13.25197 9.54906 4.76245 -5.15863 -116.25259 -72.08959 -87.42085 -36.81990 53.68860 -94.80029 11.50642 13.06046 -5.83847 24.36425 2.06171 -4.61927 65.44464 3.50636 65.55371 17.67655 34.58383 100.37023 8.55255 27.33183 -15.16408 -7.46982 -15.02035 -40.07558 371.62656 5.80050 -351.23004 15.18662 -0.16625 -0.05291 -36.49648 5.38188 18.55089 -9.57851 34.93200 -1.89379 -351.73468 -27.95239 344.31110 -11.64525 -0.35577 0.02699 -1.76718 -16.20164 -0.92777 
117.77858 89.44849 -106.15384 -1.31637 -7.21156 -69.96371 -21.03618 14.94978 11.05063 0.00088 0.00142 0.02421 -10.73797 22.88732 15.51796 8.08232 5.37502 -0.87908 -117.60016 -71.56840 -89.51355 -36.61065 54.22850 -93.37645 12.27369 13.24685 -6.57636 23.38094 4.04172 -1.04478 67.37680 3.75512 65.61169 11.29194 28.15929 96.85606 7.07900 17.81495 2.77827 -3.53574 -12.59776 -40.83425 367.41095 3.73450 -343.97067 24.15890 -0.32731 0.06713 -42.65626 8.12713 15.65660 -13.12135 35.87563 2.76029 -345.37457 -28.63521 337.60239 -15.49166 -0.26925 0.00706 0.12665 -16.99126 7.00972 
118.97216 88.85101 -106.08086 -3.86899 -7.21549 -71.25191 -20.68960 17.29343 8.71770 -0.00199 0.00191 0.03142 -12.70981 23.23867 17.48285 6.79437 5.77657 2.79800 -120.13983 -71.35803 -92.56433 -36.36229 54.98822 -92.20188 12.72433 12.96623 -7.06706 22.40519 5.67178 2.29813 69.19000 4.14209 65.76151 6.76783 24.94899 94.79823 13.64744 18.19062 2.15334 0.20375 -10.67029 -40.65533 362.86420 1.08673 -336.83276 33.28160 -0.42472 0.19472 -47.81738 11.01175 10.67383 -17.07127 35.54571 7.69801 -339.68225 -27.72061 332.60358 -18.99124 -0.16221 -0.01504 1.65341 -19.09393 11.80860 
120.19003 88.45164 -105.91405 -6.17811 -7.09633 -72.28012 -20.31286 19.41055 6.65022 -0.00097 0.00452 0.03233 -14.42728 23.47600 19.06947 5.66853 6.04771 5.84155 -123.38699 -71.26752 -96.18862 -36.04844 55.88050 -91.22248 13.23712 12.75400 -7.47598 21.50059 6.99293 5.29490 70.80390 4.40320 66.06741 3.77212 23.41298 93.71673 12.75447 13.28122 10.02828 3.69590 -9.18748 -39.51656 358.01523 -1.71869 -330.08984 42.41335 -0.45732 0.35037 -51.92141 13.35895 4.18230 -20.93586 34.05392 12.50275 -334.21509 -25.59310 328.73007 -21.56449 -0.07567 -0.01884 2.53511 -21.35125 14.36719 
121.42317 88.21729 -105.61792 -8.21983 -6.88429 -73.08259 -19.90909 21.30373 4.85336 0.00020 0.00787 0.03232 -15.86582 23.61373 20.28634 4.67334 6.21062 8.28523 -126.98933 -71.18465 -100.09188 -35.62104 56.84631 -90.42509 13.57741 12.32195 -7.70946 20.77535 8.04944 7.91083 72.13175 4.45043 66.48454 1.87284 22.84809 93.03825 15.73865 14.59941 8.42158 6.92368 -8.04514 -37.45218 352.92065 -4.34875 -323.83179 51.38005 -0.41902 0.50105 -54.91096 14.60038 -3.81719 -24.35965 31.52577 16.81264 -328.88358 -22.51835 325.49680 -23.76777 -0.03800 -0.02521 3.09388 -24.02299 15.32152 
